<mxfile host="65bd71144e">
    <diagram id="Zsr28pM9xCFbx6Z2C_zm" name="Page-1">
        <mxGraphModel dx="1760" dy="1139" grid="0" gridSize="10" guides="1" tooltips="1" connect="1" arrows="1" fold="1" page="1" pageScale="1" pageWidth="850" pageHeight="1100" math="0" shadow="0">
            <root>
                <mxCell id="0"/>
                <mxCell id="1" parent="0"/>
                <mxCell id="12" style="edgeStyle=none;html=1;exitX=0.5;exitY=1;exitDx=0;exitDy=0;entryX=0.5;entryY=0;entryDx=0;entryDy=0;arcSize=12;strokeOpacity=100;" parent="1" source="10" target="11" edge="1">
                    <mxGeometry relative="1" as="geometry"/>
                </mxCell>
                <mxCell id="10" value="" style="ellipse;whiteSpace=wrap;html=1;aspect=fixed;" parent="1" vertex="1">
                    <mxGeometry x="310" y="80" width="50" height="50" as="geometry"/>
                </mxCell>
                <mxCell id="17" style="edgeStyle=none;html=1;entryX=0.5;entryY=0;entryDx=0;entryDy=0;arcSize=12;strokeOpacity=100;" parent="1" source="11" target="13" edge="1">
                    <mxGeometry relative="1" as="geometry"/>
                </mxCell>
                <mxCell id="11" value="check data" style="rounded=0;whiteSpace=wrap;html=1;arcSize=12;strokeOpacity=100;" parent="1" vertex="1">
                    <mxGeometry x="275" y="170" width="120" height="40" as="geometry"/>
                </mxCell>
                <mxCell id="16" value="" style="edgeStyle=none;html=1;" parent="1" source="13" target="15" edge="1">
                    <mxGeometry relative="1" as="geometry"/>
                </mxCell>
                <mxCell id="19" style="edgeStyle=elbowEdgeStyle;html=1;exitX=0.5;exitY=1;exitDx=0;exitDy=0;entryX=0.5;entryY=0;entryDx=0;entryDy=0;rounded=0;strokeColor=default;elbow=vertical;" parent="1" source="13" target="34" edge="1">
                    <mxGeometry relative="1" as="geometry">
                        <mxPoint x="335" y="450" as="targetPoint"/>
                    </mxGeometry>
                </mxCell>
                <mxCell id="13" value="Is Error?" style="rhombus;whiteSpace=wrap;html=1;" parent="1" vertex="1">
                    <mxGeometry x="245" y="240" width="180" height="80" as="geometry"/>
                </mxCell>
                <mxCell id="15" value="" style="ellipse;whiteSpace=wrap;html=1;" parent="1" vertex="1">
                    <mxGeometry x="560" y="255" width="50" height="50" as="geometry"/>
                </mxCell>
                <mxCell id="37" style="edgeStyle=orthogonalEdgeStyle;shape=connector;rounded=0;html=1;exitX=0.5;exitY=1;exitDx=0;exitDy=0;labelBackgroundColor=default;strokeColor=default;fontFamily=Helvetica;fontSize=11;fontColor=default;endArrow=classic;entryX=0.5;entryY=0;entryDx=0;entryDy=0;" parent="1" source="34" target="82" edge="1">
                    <mxGeometry relative="1" as="geometry">
                        <mxPoint x="355" y="499.9999999999998" as="targetPoint"/>
                    </mxGeometry>
                </mxCell>
                <object label="i=1, i&amp;lt;200, i++" in-loop="1" id="34">
                    <mxCell style="shape=loopLimit;whiteSpace=wrap;html=1;glass=0;sketch=0;fontFamily=Helvetica;fontSize=11;fontColor=default;fillColor=none;" parent="1" vertex="1">
                        <mxGeometry x="272.5" y="360" width="165" height="60" as="geometry"/>
                    </mxCell>
                </object>
                <mxCell id="44" style="edgeStyle=elbowEdgeStyle;shape=connector;rounded=0;html=1;entryX=1;entryY=0.5;entryDx=0;entryDy=0;labelBackgroundColor=default;strokeColor=default;fontFamily=Helvetica;fontSize=11;fontColor=default;endArrow=classic;" parent="1" source="38" target="43" edge="1">
                    <mxGeometry relative="1" as="geometry"/>
                </mxCell>
                <mxCell id="53" style="edgeStyle=orthogonalEdgeStyle;shape=connector;rounded=0;html=1;labelBackgroundColor=default;strokeColor=default;fontFamily=Helvetica;fontSize=11;fontColor=default;endArrow=classic;entryX=0.5;entryY=0;entryDx=0;entryDy=0;" parent="1" source="38" target="66" edge="1">
                    <mxGeometry relative="1" as="geometry">
                        <mxPoint x="550" y="630" as="targetPoint"/>
                    </mxGeometry>
                </mxCell>
                <mxCell id="84" style="edgeStyle=orthogonalEdgeStyle;html=1;entryX=0.5;entryY=0;entryDx=0;entryDy=0;" parent="1" source="38" target="45" edge="1">
                    <mxGeometry relative="1" as="geometry"/>
                </mxCell>
                <mxCell id="38" value="optimze&lt;br&gt;status" style="rhombus;whiteSpace=wrap;html=1;glass=0;sketch=0;fontFamily=Helvetica;fontSize=11;fontColor=default;fillColor=none;" parent="1" vertex="1">
                    <mxGeometry x="305" y="550" width="75" height="80" as="geometry"/>
                </mxCell>
                <mxCell id="56" style="edgeStyle=orthogonalEdgeStyle;shape=connector;rounded=0;html=1;entryX=0.5;entryY=0;entryDx=0;entryDy=0;labelBackgroundColor=default;strokeColor=default;fontFamily=Helvetica;fontSize=11;fontColor=default;endArrow=classic;" parent="1" source="42" target="55" edge="1">
                    <mxGeometry relative="1" as="geometry"/>
                </mxCell>
                <object label="loop1" out-loop="1" id="42">
                    <mxCell style="shape=loopLimit;whiteSpace=wrap;html=1;glass=0;sketch=0;fontFamily=Helvetica;fontSize=11;fontColor=default;fillColor=none;direction=west;" parent="1" vertex="1">
                        <mxGeometry x="262.5" y="780" width="165" height="60" as="geometry"/>
                    </mxCell>
                </object>
                <mxCell id="46" style="edgeStyle=orthogonalEdgeStyle;shape=connector;rounded=0;html=1;exitX=0.5;exitY=1;exitDx=0;exitDy=0;entryX=0;entryY=0.5;entryDx=0;entryDy=0;labelBackgroundColor=default;strokeColor=default;fontFamily=Helvetica;fontSize=11;fontColor=default;endArrow=classic;" parent="1" source="43" target="45" edge="1">
                    <mxGeometry relative="1" as="geometry"/>
                </mxCell>
                <mxCell id="43" value="Error&lt;br&gt;handling" style="rounded=0;whiteSpace=wrap;html=1;glass=0;fontFamily=Helvetica;fontSize=11;fontColor=default;" parent="1" vertex="1">
                    <mxGeometry x="120" y="560" width="120" height="60" as="geometry"/>
                </mxCell>
                <mxCell id="54" style="edgeStyle=orthogonalEdgeStyle;shape=connector;rounded=0;html=1;entryX=0.5;entryY=1;entryDx=0;entryDy=0;labelBackgroundColor=default;strokeColor=default;fontFamily=Helvetica;fontSize=11;fontColor=default;endArrow=classic;" parent="1" source="45" target="42" edge="1">
                    <mxGeometry relative="1" as="geometry"/>
                </mxCell>
                <mxCell id="45" value="remodeling" style="rounded=0;whiteSpace=wrap;html=1;glass=0;fontFamily=Helvetica;fontSize=11;fontColor=default;" parent="1" vertex="1">
                    <mxGeometry x="285" y="690" width="120" height="60" as="geometry"/>
                </mxCell>
                <mxCell id="58" style="shape=connector;rounded=0;html=1;entryX=1;entryY=0.5;entryDx=0;entryDy=0;labelBackgroundColor=default;strokeColor=default;fontFamily=Helvetica;fontSize=11;fontColor=default;endArrow=classic;orthogonalLoop=0;shadow=0;edgeStyle=orthogonalEdgeStyle;exitX=0.5;exitY=1;exitDx=0;exitDy=0;" parent="1" source="66" target="55" edge="1">
                    <mxGeometry relative="1" as="geometry">
                        <mxPoint x="550" y="640" as="sourcePoint"/>
                    </mxGeometry>
                </mxCell>
                <mxCell id="55" value="post-process" style="rounded=0;whiteSpace=wrap;html=1;glass=0;fontFamily=Helvetica;fontSize=11;fontColor=default;" parent="1" vertex="1">
                    <mxGeometry x="285" y="880" width="120" height="60" as="geometry"/>
                </mxCell>
                <object label="" exit-loop="1" id="66">
                    <mxCell style="ellipse;whiteSpace=wrap;html=1;aspect=fixed;" parent="1" vertex="1">
                        <mxGeometry x="510" y="640" width="40" height="40" as="geometry"/>
                    </mxCell>
                </object>
                <mxCell id="72" style="edgeStyle=none;html=1;" parent="1" source="69" target="71" edge="1">
                    <mxGeometry relative="1" as="geometry"/>
                </mxCell>
                <object label="" in-loop="2" max-loop="3" id="69">
                    <mxCell style="shape=loopLimit;whiteSpace=wrap;html=1;" parent="1" vertex="1">
                        <mxGeometry x="285" y="1380" width="100" height="80" as="geometry"/>
                    </mxCell>
                </object>
                <mxCell id="74" style="edgeStyle=none;html=1;exitX=0.5;exitY=1;exitDx=0;exitDy=0;" parent="1" source="71" target="73" edge="1">
                    <mxGeometry relative="1" as="geometry"/>
                </mxCell>
                <mxCell id="71" value="" style="rounded=0;whiteSpace=wrap;html=1;glass=0;fontFamily=Helvetica;fontSize=11;fontColor=default;" parent="1" vertex="1">
                    <mxGeometry x="275" y="1500" width="120" height="60" as="geometry"/>
                </mxCell>
                <mxCell id="76" style="edgeStyle=none;html=1;entryX=0.5;entryY=0;entryDx=0;entryDy=0;" parent="1" source="73" target="75" edge="1">
                    <mxGeometry relative="1" as="geometry"/>
                </mxCell>
                <object label="" out-loop="2" id="73">
                    <mxCell style="shape=loopLimit;whiteSpace=wrap;html=1;rotation=-180;" parent="1" vertex="1">
                        <mxGeometry x="285" y="1620" width="100" height="80" as="geometry"/>
                    </mxCell>
                </object>
                <mxCell id="75" value="" style="rounded=0;whiteSpace=wrap;html=1;glass=0;fontFamily=Helvetica;fontSize=11;fontColor=default;" parent="1" vertex="1">
                    <mxGeometry x="275" y="1740" width="120" height="60" as="geometry"/>
                </mxCell>
                <mxCell id="78" style="edgeStyle=none;html=1;" parent="1" source="77" target="79" edge="1">
                    <mxGeometry relative="1" as="geometry">
                        <mxPoint x="120" y="1500" as="targetPoint"/>
                    </mxGeometry>
                </mxCell>
                <mxCell id="77" value="not" style="shape=loopLimit;whiteSpace=wrap;html=1;" parent="1" vertex="1">
                    <mxGeometry x="70" y="1360" width="100" height="80" as="geometry"/>
                </mxCell>
                <mxCell id="79" value="" style="rounded=0;whiteSpace=wrap;html=1;glass=0;fontFamily=Helvetica;fontSize=11;fontColor=default;" parent="1" vertex="1">
                    <mxGeometry x="60" y="1510" width="120" height="60" as="geometry"/>
                </mxCell>
                <mxCell id="81" value="Yes" style="text;html=1;align=center;verticalAlign=middle;resizable=0;points=[];autosize=1;strokeColor=none;fillColor=none;" parent="1" vertex="1">
                    <mxGeometry x="440" y="235" width="40" height="30" as="geometry"/>
                </mxCell>
                <mxCell id="83" style="edgeStyle=orthogonalEdgeStyle;html=1;entryX=0.5;entryY=0;entryDx=0;entryDy=0;" parent="1" source="82" target="38" edge="1">
                    <mxGeometry relative="1" as="geometry"/>
                </mxCell>
                <mxCell id="82" value="optimize" style="rounded=0;whiteSpace=wrap;html=1;glass=0;fontFamily=Helvetica;fontSize=11;fontColor=default;" parent="1" vertex="1">
                    <mxGeometry x="295" y="450" width="120" height="60" as="geometry"/>
                </mxCell>
                <mxCell id="85" value="Success" style="text;html=1;align=center;verticalAlign=middle;resizable=0;points=[];autosize=1;strokeColor=none;fillColor=none;" parent="1" vertex="1">
                    <mxGeometry x="385" y="560" width="70" height="30" as="geometry"/>
                </mxCell>
                <mxCell id="86" value="Warning" style="text;html=1;align=center;verticalAlign=middle;resizable=0;points=[];autosize=1;strokeColor=none;fillColor=none;" parent="1" vertex="1">
                    <mxGeometry x="355" y="640" width="70" height="30" as="geometry"/>
                </mxCell>
                <mxCell id="87" value="Error" style="text;html=1;align=center;verticalAlign=middle;resizable=0;points=[];autosize=1;strokeColor=none;fillColor=none;" parent="1" vertex="1">
                    <mxGeometry x="260" y="560" width="50" height="30" as="geometry"/>
                </mxCell>
            </root>
        </mxGraphModel>
    </diagram>
</mxfile>
